<?xml version="1.0"?>
<svg xmlns="http://www.w3.org/2000/svg" width="14" height="14" viewBox="0 0 14 14">
  <path d="m 7,0.02 c -3.85,0 -7,3.09 -7,6.91 V 14.01 H 1.34 l 0,-6.4 1.3,-0.01 -0.01,-1.35 -1.26,-0 C 1.51,5.24 1.88,4.35 2.49,3.58 L 3.54,4.6 4.47,3.64 3.44,2.63 C 4.21,2.03 5.32,1.51 6.35,1.37 l 0.01,1.36 1.29,-0.02 0.01,-1.34 C 8.84,1.48 9.82,1.97 10.68,2.69 L 9.71,3.69 10.68,4.62 11.59,3.67 c 0.53,0.72 0.9,1.64 1.03,2.57 l -1.3,0.01 -0.01,1.38 1.35,-0 v 6.4 h 1.34 V 6.93 c -0,-3.81 -3.15,-6.91 -7,-6.91 z"/>
</svg>
